<?xml version="1.0" encoding="utf-8"?>
<svg version="1.1" xmlns:xlink="http://www.w3.org/1999/xlink" width="20px" height="20px" xmlns="http://www.w3.org/2000/svg">
  <defs>
    <mask fill="white" id="clip2">
      <path d="M 10 20  C 4.39999999999998 20  0 15.6  0 10  C 0 5.84239886483067  2.42528213253536 2.34623831126191  5.96631967717303 0.821045059726828  C 6.04803471576679 0.785848814603469  6.13034392600116 0.75170216589072  6.21323121518265 0.718621206281966  C 7.3764615179706 0.254366975722576  8.65354435320501 0  10 0  C 15.6 0  20 4.39999999999998  20 10  C 20 15.6  15.6 20  10 20  Z " fill-rule="evenodd" />
    </mask>
  </defs>
  <g transform="matrix(1 0 0 1 -1012 -358 )">
    <path d="M 10 20  C 4.39999999999998 20  0 15.6  0 10  C 0 5.84239886483067  2.42528213253536 2.34623831126191  5.96631967717303 0.821045059726828  C 6.04803471576679 0.785848814603469  6.13034392600116 0.75170216589072  6.21323121518265 0.718621206281966  C 7.3764615179706 0.254366975722576  8.65354435320501 0  10 0  C 15.6 0  20 4.39999999999998  20 10  C 20 15.6  15.6 20  10 20  Z " fill-rule="nonzero" fill="#ffffff" stroke="none" fill-opacity="0" transform="matrix(1 0 0 1 1012 358 )" />
    <path d="M 10 20  C 4.39999999999998 20  0 15.6  0 10  C 0 5.84239886483067  2.42528213253536 2.34623831126191  5.96631967717303 0.821045059726828  C 6.04803471576679 0.785848814603469  6.13034392600116 0.75170216589072  6.21323121518265 0.718621206281966  C 7.3764615179706 0.254366975722576  8.65354435320501 0  10 0  C 15.6 0  20 4.39999999999998  20 10  C 20 15.6  15.6 20  10 20  Z " stroke-width="4" stroke="#ff5918" fill="none" transform="matrix(1 0 0 1 1012 358 )" mask="url(#clip2)" />
  </g>
</svg>