<?xml version="1.0" encoding="utf-8"?>
<svg version="1.1" xmlns:xlink="http://www.w3.org/1999/xlink" width="80px" height="80px" xmlns="http://www.w3.org/2000/svg">
  <g transform="matrix(1 0 0 1 -280 -10 )">
    <path d="M 320 10  C 342.4 10  360 27.6  360 50  C 360 72.4  342.4 90  320 90  C 297.6 90  280 72.4  280 50  C 280 27.6  297.6 10  320 10  Z " fill-rule="nonzero" fill="#e9e9e9" stroke="none" />
    <path d="M 320 10.5  C 342.12 10.5  359.5 27.88  359.5 50  C 359.5 72.12  342.12 89.5  320 89.5  C 297.88 89.5  280.5 72.12  280.5 50  C 280.5 27.88  297.88 10.5  320 10.5  Z " stroke-width="1" stroke="#ffffff" fill="none" />
  </g>
</svg>