<?xml version="1.0" encoding="utf-8"?>
<svg version="1.1" xmlns:xlink="http://www.w3.org/1999/xlink" width="80px" height="80px" xmlns="http://www.w3.org/2000/svg">
  <g transform="matrix(1 0 0 1 -280 -10 )">
    <path d="M 316.529784342762 10.6527306749869  C 317.683643335578 10.5509665713164  318.841500863784 10.5  320 10.5  C 341.815247618316 10.5  359.5 28.1847523816837  359.5 50  C 359.5 71.6483237432223  342.084849275082 89.2291210907107  320.500040048698 89.4968998190132  L 320.5 50  A 0.5 0.5 0 0 0 320.497470760719 49.9497720971043 L 316.529784342762 10.6527306749869  Z " fill-rule="nonzero" fill="#1abc9c" stroke="none" />
    <path d="M 316.529784342762 10.6527306749869  C 317.683643335578 10.5509665713164  318.841500863784 10.5  320 10.5  C 341.815247618316 10.5  359.5 28.1847523816837  359.5 50  C 359.5 71.6483237432223  342.084849275082 89.2291210907107  320.500040048698 89.4968998190132  L 320.5 50  A 0.5 0.5 0 0 0 320.497470760719 49.9497720971043 L 316.529784342762 10.6527306749869  Z " stroke-width="1" stroke="#ffffff" fill="none" />
  </g>
</svg>