<?xml version="1.0" encoding="utf-8"?>
<svg version="1.1" xmlns:xlink="http://www.w3.org/1999/xlink" width="64px" height="64px" xmlns="http://www.w3.org/2000/svg">
  <g transform="matrix(1 0 0 1 -288 -18 )">
    <path d="M 320 18  C 337.92 18  352 32.08  352 50  C 352 67.92  337.92 82  320 82  C 302.08 82  288 67.92  288 50  C 288 32.08  302.08 18  320 18  Z " fill-rule="nonzero" fill="#ffffff" stroke="none" />
    <path d="M 320 18.5  C 337.64 18.5  351.5 32.36  351.5 50  C 351.5 67.64  337.64 81.5  320 81.5  C 302.36 81.5  288.5 67.64  288.5 50  C 288.5 32.36  302.36 18.5  320 18.5  Z " stroke-width="1" stroke="#ffffff" fill="none" />
  </g>
</svg>