<?xml version="1.0" encoding="utf-8"?>
<svg version="1.1" xmlns:xlink="http://www.w3.org/1999/xlink" width="25px" height="25px" xmlns="http://www.w3.org/2000/svg">
  <g transform="matrix(1 0 0 1 -231 -275 )">
    <path d="M 23.7039118705036 24.8355263157895  L 10.2147032374101 24.8355263157895  C 9.59387955279812 24.8355263157895  9.09060251798561 24.2218815101847  9.09060251798561 23.4649122807018  C 9.09060251798561 22.7079430512188  9.59387955279812 22.094298245614  10.2147032374101 22.094298245614  C 10.2147032374101 22.094298245614  10.2147032374101 22.094298245614  10.2147032374101 22  L 23.7039118705036 22  C 23.7039118705036 22.094298245614  23.7039118705036 22.094298245614  23.7039118705036 22.094298245614  C 24.3247355551156 22.094298245614  24.8280125899281 22.7079430512188  24.8280125899281 23.4649122807018  C 24.8280125899281 24.2218815101847  24.3247355551156 24.8355263157895  23.7039118705036 24.8355263157895  Z M 5.71830035971223 24.8355263157895  L 1.22189748201439 24.8355263157895  C 0.601073797402436 24.8355263157895  0.0977967625899286 24.2218815101847  0.0977967625899286 23.4649122807018  C 0.0977967625899286 22.7079430512188  0.601073797402436 22.094298245614  1.22189748201439 22.094298245614  L 5.71830035971223 22.094298245614  C 6.33912404432419 22.094298245614  6.84240107913669 22.7079430512188  6.84240107913669 23.4649122807018  C 6.84240107913669 24.2218815101847  6.33912404432419 24.8355263157895  5.71830035971223 24.8355263157895  Z M 23.7039118705036 2.90570175438596  L 19.2075089928058 2.90570175438596  C 18.5866853081938 2.90570175438596  18.0834082733813 2.29205694878124  18.0834082733813 1.53508771929825  C 18.0834082733813 0.778118489815251  18.5866853081938 0.164473684210526  19.2075089928058 0.164473684210526  L 23.7039118705036 0.164473684210526  C 24.3247355551156 0.164473684210526  24.8280125899281 0.778118489815251  24.8280125899281 1.53508771929825  C 24.8280125899281 2.29205694878124  24.3247355551156 2.90570175438596  23.7039118705036 2.90570175438596  Z M 14.7111061151079 2.90570175438596  C 14.7111061151079 2.90570175438596  14.7111061151079 2.90570175438596  14.7111061151079 3  L 1.22189748201439 3  C 1.22189748201439 2.90570175438596  1.22189748201439 2.90570175438596  1.22189748201439 2.90570175438596  C 0.601073797402436 2.90570175438596  0.0977967625899286 2.29205694878124  0.0977967625899286 1.53508771929825  C 0.0977967625899286 0.778118489815251  0.601073797402436 0.164473684210526  1.22189748201439 0.164473684210526  L 14.7111061151079 0.164473684210526  C 15.3319297997199 0.164473684210526  15.8352068345324 0.778118489815251  15.8352068345324 1.53508771929825  C 15.8352068345324 2.29205694878124  15.3319297997199 2.90570175438596  14.7111061151079 2.90570175438596  Z M 23.7039118705036 8.38815789473684  L 10.2147032374101 8.38815789473684  C 9.59387955279812 8.38815789473684  9.09060251798561 7.77451308913212  9.09060251798561 7.01754385964912  C 9.09060251798561 6.26057463016613  9.59387955279812 5.6469298245614  10.2147032374101 5.6469298245614  C 10.2147032374101 5.6469298245614  10.2147032374101 5.6469298245614  10.2147032374101 6  L 23.7039118705036 6  C 23.7039118705036 5.6469298245614  23.7039118705036 5.6469298245614  23.7039118705036 5.6469298245614  C 24.3247355551156 5.6469298245614  24.8280125899281 6.26057463016613  24.8280125899281 7.01754385964912  C 24.8280125899281 7.77451308913212  24.3247355551156 8.38815789473684  23.7039118705036 8.38815789473684  Z M 23.7039118705036 13.8706140350877  L 14.7111061151079 13.8706140350877  C 14.090282430496 13.8706140350877  13.5870053956835 13.256969229483  13.5870053956835 12.5  C 13.5870053956835 11.743030770517  14.090282430496 11.1293859649123  14.7111061151079 11.1293859649123  L 23.7039118705036 11.1293859649123  C 24.3247355551156 11.1293859649123  24.8280125899281 11.743030770517  24.8280125899281 12.5  C 24.8280125899281 13.256969229483  24.3247355551156 13.8706140350877  23.7039118705036 13.8706140350877  Z M 23.7039118705036 19.3530701754386  L 14.7111061151079 19.3530701754386  C 14.090282430496 19.3530701754386  13.5870053956835 18.7394253698339  13.5870053956835 17.9824561403509  C 13.5870053956835 17.2254869108679  14.090282430496 16.6118421052632  14.7111061151079 16.6118421052632  L 23.7039118705036 16.6118421052632  C 24.3247355551156 16.6118421052632  24.8280125899281 17.2254869108679  24.8280125899281 17.9824561403509  C 24.8280125899281 18.7394253698339  24.3247355551156 19.3530701754386  23.7039118705036 19.3530701754386  Z M 4.5267535971223 9.40241228070175  L 4.59419964028777 9.45723684210526  L 6.04428956834532 11.6228070175439  C 6.95928669390994 12.7384549312173  7.02747047453099 14.5199484474439  6.20166366906475 15.734649122807  C 5.28514147389633 16.8227619512122  3.82457075631949 16.8227619512123  2.90804856115108 15.734649122807  C 2.05730582256762 14.5279546059262  2.1314445222994 12.7200108756249  3.07666366906475 11.6228070175439  L 3.54878597122302 10.8963815789474  L 4.5267535971223 9.40241228070175  Z M 4.59419964028777 5.6469298245614  L 4.5267535971223 5.60581140350877  C 4.33342933884822 5.60291783257451  4.14869394743588 5.70302784975313  4.0209082733813 5.87993421052632  C 3.26776079136691 6.92160087719298  2.15490107913669 8.62116228070175  1.32306654676259 9.90953947368421  C -0.306879496402877 12.390350877193  -0.453012589928057 15.5564692982456  1.32306654676259 17.6946271929825  C 3.11517355194966 19.8364662724734  5.98329767107193 19.8364662724734  7.77540467625899 17.6946271929825  C 9.44895393865271 15.50073673594  9.4489539386527 12.1034299307267  7.77540467625899 9.90953947368421  C 6.89860611510791 8.53892543859649  5.76326438848921 6.89418859649123  5.02135791366906 5.87993421052632  C 4.90692032776019 5.74156308608556  4.75507502337764 5.65873518805787  4.59419964028777 5.6469298245614  Z " fill-rule="nonzero" fill="#aaaaaa" stroke="none" transform="matrix(1 0 0 1 231 275 )" />
  </g>
</svg>