<?xml version="1.0" encoding="utf-8"?>
<svg version="1.1" xmlns:xlink="http://www.w3.org/1999/xlink" width="57px" height="65px" xmlns="http://www.w3.org/2000/svg">
  <g transform="matrix(1 0 0 1 -94 -370 )">
    <path d="M 15.5923913043478 25.0685975609756  L 18.1739130434783 25.0685975609756  L 18.1739130434783 22.5914634146341  C 18.1739130434783 21.2233800023246  19.3296996947303 20.1143292682927  20.7554347826087 20.1143292682927  C 22.1811698704871 20.1143292682927  23.3369565217391 21.2233800023246  23.3369565217391 22.5914634146341  L 23.3369565217391 25.0685975609756  L 25.9184782608696 25.0685975609756  C 27.344213348748 25.0685975609756  28.5 26.1776482950076  28.5 27.5457317073171  C 28.5 28.9138151196266  27.344213348748 30.0228658536585  25.9184782608696 30.0228658536585  L 23.3369565217391 30.0228658536585  L 23.3369565217391 32.5  C 23.3369565217391 33.8680834123095  22.1811698704871 34.9771341463415  20.7554347826087 34.9771341463415  C 19.3296996947303 34.9771341463415  18.1739130434783 33.8680834123095  18.1739130434783 32.5  L 18.1739130434783 30.0228658536585  L 15.5923913043478 30.0228658536585  C 14.1666562164694 30.0228658536585  13.0108695652174 28.9138151196266  13.0108695652174 27.5457317073171  C 13.0108695652174 26.1776482950076  14.1666562164694 25.0685975609756  15.5923913043478 25.0685975609756  Z M 20.7554347826087 16  C 17.9039646068519 15.1600609756098  15.5923913043478 12.9419595075458  15.5923913043478 10.2057926829268  L 7.84782608695652 10.2057926829268  C 6.42209099907812 10.2057926829268  5.26630434782609 11.3148434169588  6 12.6829268292683  L 6 57.2713414634146  C 5.26630434782609 58.6394248757241  6.42209099907812 59.7484756097561  7.84782608695652 59  L 49.1521739130435 59  C 50.5779090009219 59.7484756097561  51.7336956521739 58.6394248757241  51 57.2713414634146  L 51 12.6829268292683  C 51.7336956521739 11.3148434169588  50.5779090009219 10.2057926829268  49.1521739130435 10.2057926829268  C 47.7264388251651 10.2057926829268  46.570652173913 9.09674194889488  46.570652173913 7.72865853658537  C 46.570652173913 6.36057512427586  47.7264388251651 5.2515243902439  49.1521739130435 5.2515243902439  C 53.4293791766787 5.2515243902439  56.8967391304348 8.57867659233976  56 12.6829268292683  L 56 57.2713414634146  C 56.8967391304348 61.3755917003432  53.4293791766787 64.702743902439  49.1521739130435 64  L 7.84782608695652 64  C 3.5706208233213 64.702743902439  0.103260869565217 61.3755917003432  1 57.2713414634146  L 1 12.6829268292683  C 0.103260869565217 8.57867659233976  3.5706208233213 5.2515243902439  7.84782608695652 5.2515243902439  L 15.5923913043478 5.2515243902439  C 15.5923913043478 2.51535756562488  17.9039646068519 0.297256097560976  20.7554347826087 1  L 36.2445652173913 1  C 39.0960353931481 0.297256097560976  41.4076086956522 2.51535756562488  41.4076086956522 5.2515243902439  L 41.4076086956522 10.2057926829268  C 41.4076086956522 12.9419595075458  39.0960353931481 15.1600609756098  36.2445652173913 16  L 20.7554347826087 16  Z M 20.7554347826087 6  L 20.7554347826087 11  L 36.2445652173913 11  L 36.2445652173913 6  L 20.7554347826087 6  Z M 15.5923913043478 39.9314024390244  C 15.5923913043478 39.9314024390244  15.5923913043478 39.9314024390244  15.5923913043478 40  L 31.0815217391304 40  C 31.0815217391304 39.9314024390244  31.0815217391304 39.9314024390244  31.0815217391304 39.9314024390244  C 32.5072568270088 39.9314024390244  33.6630434782609 41.0404531730563  33.6630434782609 42.4085365853659  C 33.6630434782609 43.7766199976754  32.5072568270088 44.8856707317073  31.0815217391304 44.8856707317073  C 31.0815217391304 44.8856707317073  31.0815217391304 44.8856707317073  31.0815217391304 44  L 15.5923913043478 44  C 15.5923913043478 44.8856707317073  15.5923913043478 44.8856707317073  15.5923913043478 44.8856707317073  C 14.1666562164694 44.8856707317073  13.0108695652174 43.7766199976754  13.0108695652174 42.4085365853659  C 13.0108695652174 41.0404531730563  14.1666562164694 39.9314024390244  15.5923913043478 39.9314024390244  Z M 15.5923913043478 49.8399390243902  C 15.5923913043478 49.8399390243902  15.5923913043478 49.8399390243902  15.5923913043478 49  L 41.4076086956522 49  C 41.4076086956522 49.8399390243902  41.4076086956522 49.8399390243902  41.4076086956522 49.8399390243902  C 42.8333437835306 49.8399390243902  43.9891304347826 50.9489897584222  43.9891304347826 52.3170731707317  C 43.9891304347826 53.6851565830412  42.8333437835306 54.7942073170732  41.4076086956522 54.7942073170732  C 41.4076086956522 54.7942073170732  41.4076086956522 54.7942073170732  41.4076086956522 54  L 15.5923913043478 54  C 15.5923913043478 54.7942073170732  15.5923913043478 54.7942073170732  15.5923913043478 54.7942073170732  C 14.1666562164694 54.7942073170732  13.0108695652174 53.6851565830412  13.0108695652174 52.3170731707317  C 13.0108695652174 50.9489897584222  14.1666562164694 49.8399390243902  15.5923913043478 49.8399390243902  Z " fill-rule="nonzero" fill="#d7d7d7" stroke="none" transform="matrix(1 0 0 1 94 370 )" />
  </g>
</svg>