<?xml version="1.0" encoding="utf-8"?>
<svg version="1.1" xmlns:xlink="http://www.w3.org/1999/xlink" width="30px" height="30px" xmlns="http://www.w3.org/2000/svg">
  <g transform="matrix(1 0 0 1 -296 -350 )">
    <path d="M 26.9473684210526 16.8529411764706  C 30.7894736842105 13.0058823529412  30.7894736842105 6.74117647058824  26.9473684210526 2.89411764705882  C 23.1228070175439 -0.952941176470588  16.8947368421053 -0.952941176470588  13.0701754385965 2.89411764705882  L 11.3333333333333 4.64117647058824  L 9.82456140350877 6.15882352941177  L 2.87719298245614 13.1470588235294  C -0.947368421052633 16.9941176470588  -0.947368421052633 23.2588235294118  2.87719298245614 27.1058823529412  C 6.70175438596491 30.9529411764706  12.9298245614035 30.9529411764706  16.7543859649123 27.1058823529412  L 23.7017543859649 20.1176470588235  L 25.2105263157895 18.6  L 26.9473684210526 16.8529411764706  Z M 21.7719298245614 19.7823529411765  L 15.6140350877193 25.9764705882353  C 12.4035087719298 29.2058823529412  7.19298245614035 29.2058823529412  4 25.9764705882353  C 0.807017543859648 22.7470588235294  0.789473684210526 17.5058823529412  4 14.2941176470588  L 10.1578947368421 8.1  C 10.8245614035088 10.8352941176471  12.2105263157895 13.4470588235294  14.3333333333333 15.5823529411765  C 16.4561403508772 17.7176470588235  19.0350877192982 19.1294117647059  21.7719298245614 19.7823529411765  Z M 23.140350877193 18.4058823529412  C 20.3333333333333 17.9294117647059  17.6491228070175 16.6058823529412  15.4736842105263 14.4352941176471  C 13.3157894736842 12.2470588235294  12 9.54705882352941  11.5263157894737 6.72352941176471  L 14.2105263157895 4.0235294117647  C 17.4210526315789 0.794117647058823  22.6315789473684 0.794117647058823  25.8245614035088 4.0235294117647  C 29.0175438596491 7.25294117647059  29.0350877192982 12.4941176470588  25.8245614035088 15.7058823529412  L 23.140350877193 18.4058823529412  Z " fill-rule="nonzero" fill="#aaaaaa" stroke="none" transform="matrix(1 0 0 1 296 350 )" />
  </g>
</svg>