<?xml version="1.0" encoding="utf-8"?>
<svg version="1.1" xmlns:xlink="http://www.w3.org/1999/xlink" width="30px" height="30px" xmlns="http://www.w3.org/2000/svg">
  <g transform="matrix(1 0 0 1 -293 -422 )">
    <path d="M 23.2648026315789 10.3513392857143  C 23.0797697368421 10.4618303571429  22.8561883223684 10.51875  22.6210423519737 10.51875  C 22.4514288651316 10.51875  22.2741056743421 10.4886160714286  22.0967824835526 10.4283482142857  C 17.5210731907895 8.86138392857143  12.4789268092105 8.86138392857143  7.90321751644737 10.4283482142857  C 7.48689350328948 10.5723214285714  7.05900493421053 10.5421875  6.73134251644737 10.3513392857143  C 6.43837376644737 10.1772321428571  6.26490542763158 9.89263392857143  6.26490542763158 9.58459821428572  L 6.26490542763158 2.409375  C 6.26490542763158 1.89040178571429  6.73134251644737 1.4953125  7.19392475328948 1.33794642857143  C 9.69186883223684 0.480803571428571  12.3170230263158 0.0488839285714286  15 0.0488839285714286  C 17.6829769736842 0.0488839285714286  20.3081311677632 0.480803571428571  22.8022203947368 1.33794642857143  C 23.2648026315789 1.4953125  23.7312397203947 1.89040178571429  23.7312397203947 2.409375  L 23.7312397203947 9.58459821428572  C 23.7312397203947 9.89263392857143  23.5577713815789 10.1805803571429  23.2648026315789 10.3513392857143  Z M 8.19618626644737 8.55334821428571  C 10.3857421875 7.91049107142857  12.6716694078947 7.58236607142857  15 7.58236607142857  C 17.3283305921053 7.58236607142857  19.6142578125 7.90714285714286  21.8076685855263 8.55334821428571  L 21.8076685855263 2.79776785714286  C 17.4054276315789 1.35803571428571  12.5945723684211 1.35803571428571  8.19618626644737 2.79776785714286  L 8.19618626644737 8.55334821428571  Z M 29.2937911184211 29.5433035714286  C 28.9699835526316 29.8279017857143  28.5459498355263 29.9852678571429  28.0949321546053 30  L 1.93976151315789 30  C 1.48874383223684 29.9852678571429  1.06085526315789 29.8279017857143  0.737047697368421 29.5366071428571  C 0.39782072368421 29.2352678571429  0.205078124999999 28.8167410714286  0.205078124999999 28.3848214285714  C -0.164987664473684 24.8758928571429  0.760176809210526 22.0366071428571  2.94973273026316 19.9506696428571  C 4.32976973684211 18.6348214285714  6.19551809210526 17.64375  8.49686472039473 17.0042410714286  C 10.4936780427632 16.4484375  12.7834601151316 16.1671875  15.2968236019737 16.1671875  C 20.0768400493421 16.1671875  24.1437088815789 17.5064732142857  26.7495888157895 19.940625  C 27.8674958881579 20.9852678571429  28.7001439144737 22.2140625  29.2205489309211 23.596875  C 29.7640830592105 25.0366071428571  29.9683902138158 26.6470982142857  29.8296155427632 28.378125  C 29.8296155427632 28.8167410714286  29.6368729440789 29.2386160714286  29.2937911184211 29.5433035714286  Z M 2.12479440789474 28.2642857142857  C 2.13250411184211 28.2810267857143  2.13250411184211 28.2977678571429  2.13250411184211 28  L 27.9021895559211 28  L 27.9021895559211 28.284375  C 28.1450452302632 25.3212053571429  27.2815583881579 22.8970982142857  25.3348581414474 21.0790178571429  C 23.0951891447368 18.9897321428571  19.5294510690789 17.8379464285714  15.2891138980263 17.8379464285714  C 11.8544407894737 17.8379464285714  7.17465049342105 18.4004464285714  4.36831825657895 21.0756696428572  C 2.55268297697368 22.8100446428571  1.79713199013158 25.2274553571429  2.12479440789474 28.2642857142857  Z " fill-rule="nonzero" fill="#aaaaaa" stroke="none" transform="matrix(1 0 0 1 293 422 )" />
  </g>
</svg>