<?xml version="1.0" encoding="utf-8"?>
<svg version="1.1" xmlns:xlink="http://www.w3.org/1999/xlink" width="18px" height="19px" xmlns="http://www.w3.org/2000/svg">
  <g transform="matrix(1 0 0 1 -299 -431 )">
    <path d="M 12.47265625 7.47376244469027  C 11.34375 7.96964878318584  10.16015625 8.22251797566372  8.9609375 8.22251797566372  C 7.7578125 8.22251797566372  6.58203125 7.96964878318584  5.4609375 7.46719441371681  C 4.4375 7.01071626106195  3.5078125 6.37033324115044  2.6953125 5.56574944690265  C 1.9296875 4.80714186946902  1.296875 3.91388965707965  0.86328125 2.98451327433628  C 0.421874999999999 2.03214878318584  0.187499999999999 1.03380807522124  0.187499999999999 0.101147676991148  L 2.140625 0.101147676991148  C 2.140625 1.58880669247787  2.90625 3.23409845132743  4.18359375 4.50501244469026  C 5.53125 5.84160674778761  7.23046875 6.58051023230088  8.9609375 6.58051023230088  C 12.78125 6.58051023230088  15.859375 3.05019358407079  15.859375 0.127419800884953  L 17.8125 0.127419800884953  C 17.8125 1.06336421460177  17.57421875 2.06170492256637  17.12109375 3.01406941371681  C 16.68359375 3.94016178097345  16.0390625 4.8301299778761  15.26171875 5.58545353982301  C 14.44140625 6.38346930309734  13.50390625 7.02056830752212  12.47265625 7.47376244469027  Z M 4.5078125 8.90230918141593  L 12.0859375 18.9513965707965  L 9.6640625 18.9513965707965  L 0.1328125 13.0368846792035  L 4.5078125 8.90230918141593  Z " fill-rule="nonzero" fill="#aaaaaa" stroke="none" transform="matrix(1 0 0 1 299 431 )" />
  </g>
</svg>