<?xml version="1.0" encoding="utf-8"?>
<svg version="1.1" xmlns:xlink="http://www.w3.org/1999/xlink" width="50px" height="50px" xmlns="http://www.w3.org/2000/svg">
  <g transform="matrix(1 0 0 1 -102 -518 )">
    <path d="M 47.9411764705882 9.99999999999999  C 49.2647058823529 8.97058823529411  49.8529411764706 7.49999999999999  49.8529411764706 6.02941176470588  C 49.8529411764706 4.41176470588235  49.2647058823529 2.94117647058824  48.0882352941176 1.91176470588235  C 46.9117647058824 0.735294117647058  45.4411764705882 0.147058823529411  43.9705882352941 0.147058823529411  C 42.5 0.147058823529411  40.8823529411765 0.735294117647058  39.8529411764706 1.91176470588235  L 12.2058823529412 29.5588235294118  C 8.97058823529412 28.9705882352941  5.44117647058823 30  3.08823529411765 32.3529411764706  C 1.17647058823529 34.2647058823529  0 36.9117647058823  0 39.5588235294118  C 0 42.2058823529412  1.02941176470588 44.8529411764706  3.08823529411765 46.7647058823529  C 5.14705882352941 48.6764705882353  7.64705882352941 49.8529411764706  10.2941176470588 49.8529411764706  C 12.9411764705882 49.8529411764706  15.5882352941176 48.8235294117647  17.5 46.7647058823529  C 19.8529411764706 44.4117647058823  20.8823529411765 41.0294117647059  20.2941176470588 37.6470588235294  L 47.9411764705882 9.99999999999999  Z M 17.0588235294118 36.9117647058823  L 17.3529411764706 37.6470588235294  C 18.0882352941176 40.1470588235294  17.3529411764706 42.9411764705882  15.4411764705882 44.7058823529412  C 14.1176470588235 46.0294117647059  12.2058823529412 46.9117647058824  10.2941176470588 46.9117647058824  C 8.38235294117648 46.9117647058824  6.47058823529412 46.1764705882353  5.14705882352942 44.7058823529412  C 3.82352941176471 43.2352941176471  2.94117647058824 41.4705882352941  2.94117647058824 39.5588235294118  C 2.94117647058824 37.6470588235294  3.6764705882353 35.7352941176471  5.14705882352942 34.4117647058823  C 6.47058823529412 33.0882352941176  8.38235294117648 32.2058823529412  10.2941176470588 32.2058823529412  C 10.8823529411765 32.2058823529412  11.6176470588235 32.3529411764706  12.2058823529412 32.5  L 13.0882352941177 32.6470588235294  L 16.6176470588235 29.1176470588235  L 17.6470588235294 30.1470588235294  C 18.2352941176471 30.735294117647  19.1176470588235 30.735294117647  19.7058823529412 30.1470588235294  C 20.2941176470588 29.5588235294118  20.2941176470588 28.6764705882353  19.7058823529412 28.0882352941176  L 18.6764705882353 27.0588235294118  L 20.7352941176471 25  L 21.7647058823529 26.0294117647059  C 22.3529411764706 26.6176470588235  23.2352941176471 26.6176470588235  23.8235294117647 26.0294117647059  C 24.4117647058823 25.4411764705882  24.4117647058824 24.5588235294117  23.8235294117647 23.9705882352941  L 22.7941176470588 22.9411764705882  L 24.8529411764706 20.8823529411765  L 25.8823529411765 21.9117647058823  C 26.4705882352941 22.5  27.3529411764706 22.5  27.9411764705882 21.9117647058823  C 28.5294117647059 21.3235294117647  28.5294117647059 20.4411764705882  27.9411764705882 19.8529411764706  L 26.9117647058824 18.8235294117647  L 28.9705882352941 16.7647058823529  L 30 17.7941176470588  C 30.5882352941176 18.3823529411765  31.4705882352941 18.3823529411765  32.0588235294118 17.7941176470588  C 32.6470588235294 17.2058823529412  32.6470588235294 16.3235294117647  32.0588235294118 15.735294117647  L 31.0294117647059 14.7058823529412  L 33.0882352941177 12.6470588235294  L 37.2058823529412 16.7647058823529  L 17.0588235294118 36.9117647058823  Z M 46.9117647058824 6.02941176470588  C 46.9117647058824 6.76470588235294  46.6176470588235 7.5  46.0294117647059 8.08823529411765  L 39.4117647058824 14.7058823529412  L 35.2941176470588 10.5882352941176  L 41.9117647058824 3.97058823529412  C 43.0882352941177 2.79411764705882  45 2.79411764705882  46.0294117647059 3.97058823529412  C 46.6176470588235 4.55882352941177  46.9117647058824 5.29411764705882  46.9117647058824 6.02941176470588  Z " fill-rule="nonzero" fill="#aaaaaa" stroke="none" transform="matrix(1 0 0 1 102 518 )" />
  </g>
</svg>