<?xml version="1.0" encoding="utf-8"?>
<svg version="1.1" xmlns:xlink="http://www.w3.org/1999/xlink" width="30px" height="30px" xmlns="http://www.w3.org/2000/svg">
  <g transform="matrix(1 0 0 1 -296 -510 )">
    <path d="M 29.9439601384943 16.8376400923295  C 29.9439601384943 7.59106474165483  23.2606890684186 0.0256849365234369  15 0.0256849365234375  C 6.73931093158144 0.0256849365234375  0.0560398615056811 7.54436489035866  0.0560398615056811 16.8376400923295  C 0.0560398615056818 21.6477272727273  1.92403486032197 26.2710149480646  5.12038189512311 29.4466064675071  C 5.53549189157197 29.8669053622159  6.19966790956439 29.8202054776278  6.57326692708333 29.3532067316229  C 6.94686594460227 28.8862079856179  6.90535493607954 28.1390099653764  6.49024491003788 27.7187110706676  C 3.70900790127841 24.963418445934  2.1315898733428 20.9939290216619  2.1315898733428 16.8376400923295  C 2.1315898733428 8.85196139248935  7.90161893347538 2.3606786998402  15 2.3606786998402  C 22.0983810665246 2.3606786998402  27.8684101266572 8.85196139248935  27.8684101266572 16.8376400923295  C 27.8684101266572 21.0873287575462  26.2079701112689 25.1035180664063  23.343711085464 27.8588107244318  C 22.8870900804924 28.2791096191406  22.8455790719697 29.0263076060902  23.2191780894886 29.4933063520952  C 23.4267331025095 29.7735055930398  23.717310102983 29.913605246804  24.0078871034564 29.913605246804  C 24.2569530954072 29.913605246804  24.464508108428 29.8202055109197  24.6720630918561 29.6334059725675  C 28.0344541311553 26.4111145685369  29.9439601384943 21.7411270086115  29.9439601384943 16.8376400923295  Z " fill-rule="nonzero" fill="#d7d7d7" stroke="none" transform="matrix(1 0 0 1 296 510 )" />
  </g>
</svg>