<?xml version="1.0" encoding="utf-8"?>
<svg version="1.1" xmlns:xlink="http://www.w3.org/1999/xlink" width="23px" height="20px" xmlns="http://www.w3.org/2000/svg">
  <g transform="matrix(1 0 0 1 -299 -514 )">
    <path d="M 10.8076784552323 3.16925933527542  C 10.8076784552323 3.54074761652542  11.0978731175473 3.86579985434322  11.4295241390831 3.86579985434322  C 11.7611751901727 3.86579985434322  12.0513698524877 3.54074761652542  12.0513698524877 3.16925933527542  L 12.0513698524877 0.80102158368644  C 12.0513698524877 0.429533302436441  11.7611751901727 0.104481064618644  11.4295241390831 0.104481064618644  C 11.0978730879934 0.104481064618644  10.8076784256785 0.42953330243644  10.8076784552323 0.80102158368644  L 10.8076784552323 3.16925933527542  Z M 8.98359770379317 3.54074761652542  L 8.27883921283923 1.31181796212924  C 8.15447007606908 0.940329680879238  7.82281902497944 0.754585540254238  7.4911679738898 0.893893670550848  C 7.15951692280017 1.03320176774364  6.99369139725535 1.40469004899364  7.11806056357936 1.77617833024364  L 7.82281902497944 4.00510795153602  C 7.90573177297492 4.28372414592161  8.15447007606908 4.46946828654661  8.40320834960938 4.46946831965042  C 8.48612109760485 4.46946831965042  8.52757748637952 4.46946831965042  8.61049026392887 4.42303227621822  C 8.9421413150185 4.28372417902543  9.10796684056332 3.91223589777542  8.98359770379317 3.54074761652542  Z M 6.28893293585526 5.02670070842161  L 4.9208723722759 3.26213142213983  C 4.71359045795642 2.98351522775423  4.2990266588713 2.93707918432203  4.050288385331 3.16925933527542  C 3.80155011179071 3.40143951933263  3.76009372301604 3.86579985434322  3.96737563733553 4.14441608183263  L 5.33543620091488 5.95542141154661  C 5.45980533768503 6.14116555217161  5.62563086322985 6.18760159560381  5.79145638877467 6.1876015625  C 5.91582552554482 6.1876015625  6.08165105108964 6.1411655190678  6.20602018785979 6.00185745497881  C 6.45475846140008 5.76967727092161  6.49621485017475 5.30531693591102  6.28893293585526 5.02670070842161  Z M 1.72873108681127 7.5342465903072  L 3.55281183825041 8.78801949814619  C 3.63572458624589 8.83445554157839  3.7600937525699 8.88089155190678  3.84300650056538 8.88089158501059  C 4.05028841488487 8.88089158501059  4.25757029965049 8.7415834878178  4.38193943642064 8.50940330376059  C 4.54776496196546 8.18435106594279  4.46485218441612 7.76642674126059  4.17465752210115 7.58068260063559  L 2.35057677066201 6.373345703125  C 2.06038210834704 6.1876015625  1.68727466848273 6.28047364936441  1.52144917249178 6.6055258871822  C 1.35562364694696 6.930578125  1.4385364244963 7.3485024496822  1.72873108681127 7.5342465903072  Z M 0.899603459087171 10.3204086334746  C 0.526496019222862 10.2739725900424  0.194844997687089 10.5061527740996  0.153388608912418 10.8776410553496  C 0.111932220137747 11.2491293365996  0.319214134457236 11.6206176178496  0.650865185546875 11.667053628178  L 2.72368421052632 12.0849779528602  L 2.84805334729646 12.0849779528602  C 3.13824800961143 12.0849779528602  3.38698628315173 11.852797768803  3.46989906070107 11.5277455309852  C 3.51135544947574 11.1562572497352  3.30407353515625 10.7847689684852  2.97242248406661 10.7383329581568  L 0.899603459087171 10.3204086334746  Z M 0.236301356907894 15.3819363744703  C 0.236301356907894 15.7069886122881  0.48503963044819 15.9391687963453  0.816690711091694 15.9391687963453  L 0.941059847861842 15.9391687963453  L 3.01387887284128 15.5212444716631  C 3.34552992393092 15.4748084282309  3.59426819747122 15.1033201469809  3.51135544947574 14.7318318988347  C 3.46989906070107 14.3603436175847  3.13824800961143 14.0817274231992  2.80659695852179 14.1745994769597  L 0.733777933542351 14.5925238016419  C 0.402126882452713 14.6389598450742  0.153388608912417 15.0104481263241  0.236301356907894 15.3819363744703  Z M 4.50630857319079 17.7501741260593  C 4.34048304764597 17.3786858448093  3.96737563733553 17.2393777476165  3.67718097502056 17.4715579316737  L 1.85310022358141 18.6788948291843  C 1.56290556126645 18.8646389698093  1.4385364244963 19.2825632613877  1.64581830926192 19.6076154992055  C 1.77018744603207 19.8397956832627  1.97746936035156 19.9791037804555  2.18475127467105 19.9791037804555  C 2.3091204114412 19.9791037804555  2.39203318899054 19.9326677370233  2.47494593698602 19.8862317266949  L 4.29902668842516 18.6788948291843  C 4.58922135074013 18.4931506885593  4.71359048751028 18.0752263969809  4.50630857319079 17.7501741260593  Z M 20.7572098105983 19.6076154992055  C 20.8401225585938 19.7004875529661  20.9230353361431 19.7469235963983  21.0474044729132 19.7469235963983  C 21.2546863872327 19.7469235963983  21.4619682719984 19.6076154992055  21.5863374087685 19.3754353482521  C 21.7521629343133 19.0503831104343  21.669250156764 18.6324587857521  21.3790555240029 18.4467146451271  L 19.5549747725637 17.2393777476165  C 19.2647801102488 17.0536336069915  18.8916726703845 17.1465056938559  18.7258471448396 17.4715579316737  C 18.5600216192948 17.7966101694915  18.6429343968442 18.2145344941737  18.9331290591591 18.4002786016949  L 20.7572098105983 19.6076154992055  Z M 22.4569214252673 14.3603436175847  L 20.3426460115132 13.9424193260064  C 20.0109949604235 13.8959832825742  19.6793439093339 14.1281634666314  19.6378875205592 14.4996517147775  C 19.5964311317845 14.8711399960275  19.803713046104 15.2426282772775  20.1353640971937 15.2890643207097  L 22.2081831221731 15.7069886122881  L 22.3325522589433 15.7069886122881  C 22.6227469212582 15.7069886122881  22.8714851947985 15.4748084282309  22.9543979723479 15.149756223517  C 22.9958543611225 14.778267942267  22.788572446803 14.4067796610169  22.4569214252673 14.3603436175847  Z M 22.9129416131271 10.6454608712924  C 22.8300288651316 10.2739725900424  22.4983778140419 10.041792439089  22.1667267629523 10.0882284494174  L 20.093907708419 10.5061527740996  C 19.7622566573294 10.5525888175318  19.5135183837891 10.9240770987818  19.5964311317845 11.295565346928  C 19.6378875205592 11.6206175847458  19.9280821828742 11.852797768803  20.2182768451891 11.852797768803  L 20.3426460115132 11.852797768803  L 22.4154650364926 11.4348734772246  C 22.7471160875822 11.3884374337924  22.9958543611225 11.0169491525424  22.9129416131271 10.6454608712924  Z M 18.5600216192948 8.3700952065678  C 18.684390756065 8.5558393471928  18.8916726703845 8.6951474443856  19.098954584704 8.6951474443856  C 19.2233237214741 8.6951474443856  19.3062364990234 8.64871140095339  19.3891492470189 8.60227535752119  L 21.2132299984581 7.39493846001059  C 21.503424660773 7.2091943193856  21.6277937975432 6.79127002780721  21.4205118832237 6.46621778998941  C 21.2546863576789 6.14116555217161  20.8815789473684 6.00185745497881  20.5913842850535 6.23403760593221  L 18.7673035336143 7.4413745034428  C 18.4771088712993 7.6271186440678  18.3527397345292 8.04504293564619  18.5600216192948 8.3700952065678  Z M 18.9745854479338 4.05154399496822  C 19.1818673622533 3.72649175715042  19.1404109734786 3.30856743246822  18.8916726703845 3.02995123808263  C 18.6429343968442 2.79777105402542  18.2283705682052 2.84420709745763  18.0210886834396 3.12282332494703  L 16.6530281198602 4.93382865466102  C 16.4457462055407 5.21244484904661  16.4872025943154 5.67680521716102  16.7359408678557 5.90898536811441  C 16.8603100046258 6.001857421875  16.984679141396 6.09472950873941  17.1505046964947 6.09472950873941  C 17.3163302515933 6.09472950873941  17.523612136359 6.00185745497881  17.6065248843544 5.8625493246822  L 18.9745854479338 4.05154399496822  Z M 14.2485580437911 4.37659623278602  C 14.2900144325658 4.42303227621822  14.3729271805613 4.42303227621822  14.4558399285567 4.42303227621822  C 14.704578202097 4.42303227621822  14.9533165051912 4.23728813559322  15.0362292827405 3.95867194120763  L 15.7409877441406 1.72974228681144  C 15.8653568809108 1.35825400556144  15.699531355366 0.986765724311441  15.3678803042763 0.847457627118645  C 15.0362292531867 0.708149529925848  14.704578202097 0.893893670550849  14.5802090948808 1.26538195180085  L 13.8754506039268 3.49431157309322  C 13.7510814671567 3.86579985434322  13.9169069927015 4.23728813559322  14.2485580437911 4.37659623278602  Z M 16.1140951840049 8.41653121689619  C 16.0311824360095 8.18435103283898  15.9068132696854 7.95217088188559  15.7409877441406 7.8128627846928  C 15.3678803042763 7.487810546875  14.8289473684211 7.58068260063559  14.5387527061061 7.9986069253178  L 11.8026315789474 12.038541909428  C 11.3051550023129 12.038541909428  10.8491348144531 12.2707220934852  10.5589401521382 12.6886463850636  C 10.3102018785979 13.0601346663136  10.2272891010485 13.478058957892  10.2687454898232 13.8959832825742  C 10.3102018785979 14.3139076072564  10.5174837633635 14.7318318988347  10.8491348144531 15.0104480932203  C 11.0978730879934 15.2426282772775  11.4295241390831 15.3355003310381  11.7611751901727 15.335500364142  L 11.9684571044922 15.335500364142  C 12.3415645443565 15.2890643207097  12.7146719546669 15.0568841697564  12.9634102282072 14.6853958554025  C 13.2536048905222 14.2674715307203  13.3365176680715 13.6638030985169  13.2121485313014 13.1530067200742  L 15.9482696584601 9.11307173596398  C 16.0726387952303 8.92732759533898  16.1555515727796 8.64871140095339  16.1140951840049 8.41653121689619  Z " fill-rule="nonzero" fill="#d7d7d7" stroke="none" transform="matrix(1 0 0 1 299 514 )" />
  </g>
</svg>