<?xml version="1.0" encoding="utf-8"?>
<svg version="1.1" xmlns:xlink="http://www.w3.org/1999/xlink" width="30px" height="30px" xmlns="http://www.w3.org/2000/svg">
  <g transform="matrix(1 0 0 1 -296 -577 )">
    <path d="M 29.8810714285714 3.3333  C 29.8789058414978 1.49312326313503  28.1035437343631 0.00181909314187402  25.9128571428571 0  L 4.08714285714286 0  C 1.89645626563694 0.00181909314187321  0.12109415850223 1.49312326313503  0.118928571428571 3.3333  L 0.118928571428571 26.6667  C 0.121094158502233 28.506876736865  1.89645626563694 29.9981809068581  4.08714285714286 30  L 25.9128571428571 30  C 28.1035437343631 29.9981809068581  29.8789058414978 28.506876736865  29.8810714285714 26.6667  L 29.8810714285714 3.3333  Z M 18.9682142857143 8.3334  L 18.9682142857143 1.6668  L 22.9364285714286 1.6668  L 22.9364285714286 8.3334  L 21.7457142857143 7.0005  C 21.3717857142857 6.5805  20.5314285714286 6.5805  20.1589285714286 7.0005  L 18.9682142857143 8.3334  Z M 4.08714285714286 28.3332  C 2.99210183940904 28.3318781593262  2.10478790556403 27.5865344548964  2.10321428571429 26.6667  L 2.10321428571429 3.3333  C 2.1045916767096 2.41323145371756  2.99218030204471 1.66765700843606  4.0875 1.6665  L 6 1.6665  L 6 28.3332  L 4.08714285714286 28.3332  Z M 27.8975 3.3336  L 27.8967857142857 26.6667  C 27.8954083232904 27.5867685462824  27.0078196979553 28.3323429915639  25.9125 28  L 8 28  L 8 1.6668  L 16.9839285714286 1.6668  L 16.9839285714286 10.8333  C 16.9839283923126 11.293909116733  17.4279659814983 11.6669006916489  17.9757141065983 11.6669006916489  C 18.2881794455493 11.6669006916489  18.5823739487022 11.5432090775534  18.7696428571429 11.3331  L 20.9525 8.8893  L 23.1353571428571 11.3331  C 23.3226260512978 11.5432090775534  23.6168205544507 11.6669006916489  23.9292858934017 11.6669006916489  C 24.4770340185017 11.6669006916489  24.9210716076874 11.2939091167329  24.9210716076874 10.8338006916489  L 24.9210714285714 1.6668  L 25.9132142857143 1.6668  C 27.0085339836696 1.66795700843607  27.8961226090047 2.41353145371756  27.8975 3.3336  Z " fill-rule="nonzero" fill="#aaaaaa" stroke="none" transform="matrix(1 0 0 1 296 577 )" />
  </g>
</svg>